<?xml version="1.0" encoding="UTF-8" standalone="no"?>
<!-- Created with Inkscape (http://www.inkscape.org/) -->

<svg
   width="461.07672"
   height="188.11523"
   viewBox="0 0 121.99322 49.772156"
   version="1.1"
   id="svg5"
   xml:space="preserve"
   inkscape:version="1.1.2 (0a00cf5339, 2022-02-04)"
   sodipodi:docname="stunner_auth.svg"
   inkscape:export-filename="stunnerlogoidea.png"
   inkscape:export-xdpi="96"
   inkscape:export-ydpi="96"
   xmlns:inkscape="http://www.inkscape.org/namespaces/inkscape"
   xmlns:sodipodi="http://sodipodi.sourceforge.net/DTD/sodipodi-0.dtd"
   xmlns="http://www.w3.org/2000/svg"
   xmlns:svg="http://www.w3.org/2000/svg"><sodipodi:namedview
     id="namedview7"
     pagecolor="#ffffff"
     bordercolor="#000000"
     borderopacity="0.25"
     inkscape:showpageshadow="2"
     inkscape:pageopacity="0"
     inkscape:pagecheckerboard="0"
     inkscape:deskcolor="#d1d1d1"
     inkscape:document-units="mm"
     showgrid="false"
     inkscape:zoom="1.6261298"
     inkscape:cx="223.84437"
     inkscape:cy="115.91941"
     inkscape:window-width="1912"
     inkscape:window-height="1037"
     inkscape:window-x="0"
     inkscape:window-y="0"
     inkscape:window-maximized="1"
     inkscape:current-layer="layer1"
     showborder="true"
     inkscape:pageshadow="2"
     fit-margin-top="0"
     fit-margin-left="0"
     fit-margin-right="0"
     fit-margin-bottom="0" /><defs
     id="defs2"><rect
       x="88.193474"
       y="245.61409"
       width="792.79297"
       height="283.54675"
       id="rect821" /><clipPath
       clipPathUnits="userSpaceOnUse"
       id="clipPath275"><rect
         style="fill:#000000;stroke-width:0.264583"
         id="rect277"
         width="78.064514"
         height="146.90323"
         x="139.09677"
         y="-18.806454" /></clipPath></defs><g
     inkscape:label="Réteg 1"
     inkscape:groupmode="layer"
     id="layer1"
     style="display:inline"
     transform="translate(-99.715278,-0.59357978)"><g
       id="g1215"
       transform="matrix(0.91633435,0,0,1,-3.0333973,-4.4979167)" /><path
       sodipodi:type="star"
       style="display:inline;fill:#0000d4;stroke-width:0.264583"
       id="path111"
       inkscape:flatsided="true"
       sodipodi:sides="7"
       sodipodi:cx="139.09677"
       sodipodi:cy="57.483868"
       sodipodi:r1="56.80191"
       sodipodi:r2="51.17675"
       sodipodi:arg1="0.67474094"
       sodipodi:arg2="1.1235399"
       inkscape:rounded="0.1"
       inkscape:randomized="0"
       inkscape:transform-center-x="-0.020158441"
       inkscape:transform-center-y="2.8879121"
       transform="matrix(0.44001779,0,0,0.42830494,113.11412,-1.4206401)"
       clip-path="url(#clipPath275)"
       d="m 183.45161,92.96774 c -3.07917,3.848968 -39.51338,21.32557 -44.44246,21.31797 C 134.08007,114.27811 97.69996,96.689185 94.632674,92.830735 91.565387,88.972285 82.63433,49.562653 83.738566,44.758848 84.842802,39.955043 110.08607,8.4009568 114.53032,6.2691597 c 4.44424,-2.1317971 44.85314,-2.0694657 49.29079,0.076032 4.43765,2.1454976 29.58345,33.7773095 30.67286,38.5844975 1.08941,4.807189 -7.96318,44.189082 -11.04236,48.038051 z" /><path
       sodipodi:type="star"
       style="display:inline;fill:#0066ff;stroke-width:0.264583"
       id="path279"
       inkscape:flatsided="true"
       sodipodi:sides="7"
       sodipodi:cx="139.09677"
       sodipodi:cy="57.483868"
       sodipodi:r1="56.80191"
       sodipodi:r2="51.17675"
       sodipodi:arg1="0.67474094"
       sodipodi:arg2="1.1235399"
       inkscape:rounded="0.1"
       inkscape:randomized="0"
       inkscape:transform-center-x="0.020155505"
       inkscape:transform-center-y="2.887912"
       transform="matrix(-0.44001779,0,0,0.42830494,233.26049,1.4166019)"
       clip-path="url(#clipPath275)"
       inkscape:label="path279"
       d="m 183.45161,92.96774 c -3.07917,3.848968 -39.51338,21.32557 -44.44246,21.31797 C 134.08007,114.27811 97.69996,96.689185 94.632674,92.830735 91.565387,88.972285 82.63433,49.562653 83.738566,44.758848 84.842802,39.955043 110.08607,8.4009568 114.53032,6.2691597 c 4.44424,-2.1317971 44.85314,-2.0694657 49.29079,0.076032 4.43765,2.1454976 29.58345,33.7773095 30.67286,38.5844975 1.08941,4.807189 -7.96318,44.189082 -11.04236,48.038051 z" /><g
       aria-label="STUN"
       transform="matrix(0.09126469,0,-0.01834761,0.09054097,98.57719,-7.1794459)"
       id="text819"
       style="font-size:224.649px;font-family:'Ausweis Hollow';-inkscape-font-specification:'Ausweis Hollow';white-space:pre;shape-inside:url(#rect821);shape-padding:7.58654;display:inline;fill:#1f386e"
       inkscape:label="text819"><path
         d="m 101.39552,437.86265 h -0.89859 v -51.89392 h 3.81903 l -2.92044,-3.36973 h -0.89859 v -86.26522 h 142.42746 v 1.12325 l 10.78316,11.90639 v 50.77068 h -4.04369 l 4.04369,4.49298 v 85.14197 H 112.40332 Z m 53.01717,-82.22153 v -11.68175 h 85.36662 V 300.37746 H 103.86666 v 78.17786 h 77.50391 v 11.45709 h -77.50391 v 43.80656 h 135.91265 v -78.17785 z"
         id="path484" /><path
         d="m 411.86009,296.33378 v 1.34789 l 10.78316,11.68175 v 50.77068 h -40.88612 v 89.63495 h -64.24962 l -11.0078,-11.9064 h -0.89859 V 360.1341 h -31.67551 l -10.78315,-11.9064 h -0.8986 v -51.89392 z m -146.2465,4.26833 v 43.58191 h 43.35726 v 89.63495 h 58.63339 v -89.63495 h 40.88612 v -43.58191 z"
         id="path486" /><path
         d="m 587.53532,296.33378 v 1.34789 l 11.00781,11.68175 V 449.76905 H 441.06418 l -10.78316,-11.9064 h -0.89859 V 296.33378 h 64.92356 v 1.34789 l 11.0078,11.68175 v 76.60531 h 17.07332 v -89.63495 z m -61.77847,4.26833 v 89.63495 h -34.8206 V 300.60211 H 432.52751 V 433.81897 H 584.16559 V 300.60211 Z"
         id="path488" /><path
         d="m 682.33696,309.13877 17.97193,27.18253 v -40.21217 h 64.92356 v 1.3479 l 11.0078,11.68174 v 140.63028 h -63.35102 l -11.0078,-11.9064 h -0.4493 l -18.42122,-26.95788 v 38.86428 h -64.02496 l -10.78316,-11.9064 H 607.3042 V 296.10913 h 63.80031 l 1.7972,2.92044 z m 79.52575,124.6802 V 300.37746 h -58.18409 v 50.09673 l -33.922,-50.09673 h -59.30734 v 133.44151 h 58.40874 v -50.09673 l 33.922,50.09673 z"
         id="path490" /></g><path
       style="display:inline;fill:#5f8dd3;fill-opacity:1;stroke-width:0.10636"
       d="m 101.74946,23.534597 c -0.24065,1.187554 -0.4813,2.375109 -0.72195,3.562664 2.3735,0 4.74701,0 7.12052,0 0.002,0.840766 -0.3637,1.183971 -1.12869,0.986583 -2.06392,0 -4.12784,0 -6.19176,0 -0.27397,1.351984 -0.54794,2.703971 -0.82191,4.055954 4.16223,0 8.32447,0 12.4867,0 0.4813,-2.375109 0.96261,-4.750214 1.44391,-7.125324 -2.5799,0 -5.1598,0 -7.7397,0 -0.002,-0.840766 0.3637,-1.183975 1.12869,-0.986583 2.27031,0 4.54062,0 6.81093,0 0.27398,-1.351988 0.54795,-2.703971 0.82192,-4.055958 -4.16223,0 -8.32447,0 -12.48671,0 -0.24065,1.187554 -0.4813,2.375109 -0.72195,3.562664 z"
       id="path1122" /><path
       style="display:inline;fill:#5f8dd3;fill-opacity:1;stroke-width:0.10636"
       d="m 116.81747,21.999914 c -0.13698,0.675989 -0.27397,1.351983 -0.41096,2.027977 1.34155,0 2.6831,0 4.02465,0 -0.54795,2.70397 -1.09589,5.407937 -1.64384,8.111907 1.82313,0 3.64626,0 5.46939,0 0.54794,-2.70397 1.09588,-5.407937 1.64383,-8.111907 1.23835,0 2.4767,0 3.71505,0 0.27397,-1.351988 0.54795,-2.703971 0.82192,-4.055958 -4.40303,0 -8.80605,0 -13.20908,0 -0.13699,0.675993 -0.27397,1.351987 -0.41096,2.027981 z"
       id="path1124" /><path
       style="display:inline;fill:#5f8dd3;fill-opacity:1;stroke-width:0.10636"
       d="m 131.26855,26.055867 c -0.41095,2.027977 -0.82191,4.055954 -1.23287,6.083931 4.64382,0 9.28763,0 13.93145,0 0.82191,-4.055954 1.64383,-8.111907 2.46575,-12.167865 -1.82313,0 -3.64626,0 -5.46939,0 -0.54794,2.70397 -1.09588,5.407941 -1.64383,8.111911 -0.99756,0 -1.99512,0 -2.99268,0 0.54794,-2.70397 1.09589,-5.407941 1.64383,-8.111911 -1.82313,0 -3.64625,0 -5.46938,0 -0.41096,2.027981 -0.82192,4.055958 -1.23288,6.083934 z"
       id="path1126" /><path
       style="display:inline;fill:#5f8dd3;fill-opacity:1;stroke-width:0.10636"
       d="m 147.47031,26.055867 c -0.41095,2.027977 -0.82191,4.055954 -1.23287,6.083931 1.82165,0 3.6433,0 5.46495,0 0.31034,-1.439266 0.62068,-2.878533 0.93101,-4.3178 0.68052,1.421037 1.3611,2.842033 2.04174,4.262991 1.83103,0.01939 3.66203,0.03886 5.49301,0.05845 0.82216,-4.057168 1.64432,-8.114336 2.46648,-12.171507 -1.78731,0 -3.57463,0 -5.36195,0 -0.31311,1.453829 -0.62633,2.907655 -0.93966,4.361481 -0.69469,-1.453735 -1.38924,-2.907561 -2.08366,-4.361481 -1.84872,0 -3.69745,0 -5.54617,0 -0.41096,2.027981 -0.82192,4.055958 -1.23288,6.083935 z"
       id="path1128" /><g
       aria-label="ner"
       transform="matrix(0.40418665,0,-0.0839582,0.41431337,81.307405,-16.138551)"
       id="text10283"
       style="font-size:25.4px;font-family:'Full Pack 2025';-inkscape-font-specification:'Full Pack 2025, ';white-space:pre;inline-size:66.1973;display:inline;fill:#1f386e;stroke-width:0.264583"><path
         d="m 231.29629,102.27767 2.032,3.0734 v -4.5466 h 7.3406 v 0.1524 l 1.2446,1.3208 v 15.9004 h -7.1628 l -1.2446,-1.3462 h -0.0508 l -2.0828,-3.048 v 4.3942 h -7.239 l -1.2192,-1.3462 h -0.1016 v -16.0274 h 7.2136 l 0.2032,0.3302 z m 8.9916,14.097 v -15.0876 h -6.5786 v 5.6642 l -3.8354,-5.6642 h -6.7056 v 15.0876 h 6.604 v -5.6642 l 3.8354,5.6642 z"
         style="font-family:'Ausweis Hollow';-inkscape-font-specification:'Ausweis Hollow'"
         id="path493" /><path
         d="m 243.08186,116.85727 h -0.1016 v -16.0274 h 16.129 v 0.127 l 1.2446,1.3462 v 5.7404 h -4.8514 l 0.4572,0.508 v 2.4384 h 3.1496 v 0.127 l 1.2446,1.3208 v 5.7404 h -16.0274 z m 6.9088,-5.4102 v -1.3208 h 4.3688 v -2.5908 h -4.3688 v -1.3208 h 8.7376 v -4.9276 h -15.367 v 15.0876 h 15.367 v -4.9276 z"
         style="font-family:'Ausweis Hollow';-inkscape-font-specification:'Ausweis Hollow'"
         id="path495" /><path
         d="m 269.90423,108.60227 h 1.9304 v -0.5842 h -1.9304 z m 9.2964,-7.7978 v 0.127 l 1.2446,1.3462 v 11.2014 h -2.5908 l 2.6924,4.699 h -8.1788 l -1.2192,-1.3462 h -0.0762 l -1.1684,-2.1082 v 3.4544 h -7.2136 l -1.2446,-1.3462 h -0.1016 v -16.0274 z m -10.922,8.2804 v -2.8956 h 3.937 v 2.8956 z m -6.5532,-7.8232 v 15.0876 h 6.5532 v -5.207 l 2.9718,5.207 h 7.3914 q -0.635,-1.0922 -1.3462,-2.3368 -0.6858,-1.27 -1.2954,-2.3368 h 2.8194 v -10.414 z"
         style="font-family:'Ausweis Hollow';-inkscape-font-specification:'Ausweis Hollow'"
         id="path497" /></g><path
       style="fill:#ffffff;fill-opacity:1;stroke-width:0.0575917"
       d="m 162.33093,28.975412 c -0.21275,1.049899 -0.42551,2.099798 -0.63826,3.149696 0.91013,0 1.82027,0 2.73041,0 0.15502,-0.764998 0.31004,-1.529996 0.46507,-2.294995 0.34771,0.763803 0.6954,1.527625 1.04306,2.291464 0.91939,0.0011 1.83877,0.0023 2.75813,0.0035 0.42538,-2.099113 0.85075,-4.198228 1.27612,-6.297343 -0.91013,0 -1.82027,0 -2.73041,0 -0.15095,0.744917 -0.3019,1.489834 -0.45286,2.23475 -0.33825,-0.735206 -0.67651,-1.470405 -1.0148,-2.205595 -0.93273,-0.0104 -1.86546,-0.0208 -2.79819,-0.0312 -0.21275,1.0499 -0.42551,2.099798 -0.63826,3.149697 z"
       id="path1201" /><path
       style="fill:#ffffff;fill-opacity:1;stroke-width:0.0575917"
       d="m 170.52196,28.976437 c -0.21269,1.049558 -0.42538,2.099114 -0.63806,3.148671 2.08573,0 4.17146,0 6.25719,0 0.14179,-0.699705 0.28358,-1.399409 0.42537,-2.099113 -1.17559,0 -2.35119,0 -3.52678,0 -0.004,-0.447218 0.19584,-0.629773 0.6183,-0.524779 0.41714,0 0.83429,0 1.25143,0 0.0748,-0.369289 0.14967,-0.738578 0.22451,-1.107866 -0.5878,0 -1.1756,0 -1.76339,0 -0.004,-0.447216 0.19584,-0.629773 0.61829,-0.524779 1.00494,0 2.00989,0 3.01483,0 0.13785,-0.680268 0.2757,-1.360536 0.41356,-2.040806 -2.08573,0 -4.17146,0 -6.25719,0 -0.21269,1.049558 -0.42538,2.099115 -0.63806,3.148672 z"
       id="path1203" /><path
       style="fill:#ffffff;fill-opacity:1;stroke-width:0.0575917"
       d="m 177.92873,28.917673 c -0.21272,1.049709 -0.42544,2.099417 -0.63816,3.149127 0.91014,0 1.82028,0 2.73041,0 0.13653,-0.67055 0.27311,-1.341101 0.40965,-2.011652 0.23331,0.670119 0.46659,1.340252 0.69984,2.010399 1.0155,-0.0062 2.02657,0.01631 3.04698,-0.01834 -0.20102,-0.631731 -0.42823,-1.250437 -0.64263,-1.875446 0.3815,-0.01108 0.76301,-0.02217 1.14452,-0.03325 0.28323,-1.446634 0.56645,-2.893267 0.84968,-4.3399 -2.32072,-0.01002 -4.64143,-0.02004 -6.96214,-0.03007 -0.21272,1.049709 -0.42544,2.099417 -0.63815,3.149127 z m 3.71093,-1.049102 c 0.26743,0.07074 0.94649,-0.207881 0.70884,0.291544 -0.14169,0.282781 0.0142,0.950598 -0.40477,0.874631 -0.4361,0 -0.87221,0 -1.30832,0 0.0788,-0.388725 0.15755,-0.77745 0.23632,-1.166175 0.25598,0 0.51195,0 0.76793,0 z"
       id="path1205" /><text
       xml:space="preserve"
       style="font-style:normal;font-weight:normal;font-size:10.5833px;line-height:125%;font-family:Sans;letter-spacing:0px;word-spacing:0px;fill:#3771c8;fill-opacity:1;stroke:#ffffff;stroke-width:0.365;stroke-linecap:round;stroke-linejoin:round;stroke-miterlimit:4;stroke-dasharray:none;stroke-opacity:1;opacity:1"
       x="116.1739"
       y="47.458618"
       id="text1423"><tspan
         sodipodi:role="line"
         id="tspan1421"
         style="font-style:normal;font-variant:normal;font-weight:normal;font-stretch:normal;font-size:12.7px;font-family:'Arial Black';-inkscape-font-specification:'Arial Black, Normal';font-variant-ligatures:normal;font-variant-caps:normal;font-variant-numeric:normal;font-variant-east-asian:normal;fill:#3771c8;fill-opacity:1;stroke:#ffffff;stroke-width:0.365;stroke-miterlimit:4;stroke-dasharray:none;stroke-linejoin:round;stroke-linecap:round"
         x="116.1739"
         y="47.458618">AUTH SERVICE</tspan></text></g></svg>
